<svg height="512pt" viewBox="-108 0 512 512" width="512pt" xmlns="http://www.w3.org/2000/svg"><path d="m212.894531 32h32v352h-32zm0 0" fill="#fbc02d"/><g fill="#fdd835"><path d="m164.75 95.601562c-6.289062-6.226562-6.335938-16.355468-.113281-22.640624l63.472656-64.113282 63.457031 64.113282c6.222656 6.285156 6.160156 16.414062-.113281 22.640624-6.285156 6.222657-16.414063 6.160157-22.621094-.113281l-40.707031-41.136719-40.71875 41.136719c-6.257812 6.289063-16.382812 6.335938-22.65625.113281zm0 0"/><path d="m212.894531 416h32v32h-32zm0 0"/><path d="m212.894531 480h32v32h-32zm0 0"/></g><path d="m52.894531 128h32v352h-32zm0 0" fill="#66bb6a"/><path d="m68.09375 502.734375-63.472656-64.109375c-6.207032-6.273438-6.160156-16.402344.128906-22.625s16.417969-6.160156 22.625.113281l40.71875 41.132813 40.703125-41.132813c6.242187-6.273437 16.371094-6.335937 22.640625-.113281 6.289062 6.222656 6.335938 16.351562.113281 22.640625zm0 0" fill="#81c784"/><path d="m52.894531 64h32v32h-32zm0 0" fill="#81c784"/><path d="m52.894531 0h32v32h-32zm0 0" fill="#81c784"/></svg>